HIERARCHY
ROOT Hips
{
  OFFSET -272.383 99.2113 258.667
  CHANNELS 6 Xposition Yposition Zposition Zrotation Xrotation Yrotation
  JOINT ToSpine
  {
    OFFSET -2.69724 7.43032 -0.144315
    CHANNELS 3 Zrotation Xrotation Yrotation
    JOINT Spine
    {
      OFFSET -0.0310711 10.7595 1.96963
      CHANNELS 3 Zrotation Xrotation Yrotation
      JOINT Spine1
      {
        OFFSET 19.9056 3.91189 0.764692
        CHANNELS 3 Zrotation Xrotation Yrotation
        JOINT Neck
        {
          OFFSET 25.9749 7.03908 -0.130764
          CHANNELS 3 Zrotation Xrotation Yrotation
          JOINT Head
          {
            OFFSET 9.52751 0.295786 -0.907742
            CHANNELS 3 Zrotation Xrotation Yrotation
            End Site
            {
              OFFSET 16.4037 0.713936 2.7358
            }
          }
        }
        JOINT LeftShoulder
        {
          OFFSET 17.7449 4.33886 11.7777
          CHANNELS 3 Zrotation Xrotation Yrotation
          JOINT LeftArm
          {
            OFFSET 0.911315 1.27913 9.80584
            CHANNELS 3 Zrotation Xrotation Yrotation
            JOINT LeftForeArm
            {
              OFFSET 28.6126 1.18197 -3.53199
              CHANNELS 3 Zrotation Xrotation Yrotation
              JOINT LeftHand
              {
                OFFSET 27.5088 0.0218783 0.327423
                CHANNELS 3 Zrotation Xrotation Yrotation
                End Site
                {
                  OFFSET 18.6038 -0.000155887 0.382096
                }
              }
            }
          }
        }
        JOINT RightShoulder
        {
          OFFSET 17.1009 2.89543 -12.2328
          CHANNELS 3 Zrotation Xrotation Yrotation
          JOINT RightArm
          {
            OFFSET 1.4228 0.178766 -10.211
            CHANNELS 3 Zrotation Xrotation Yrotation
            JOINT RightForeArm
            {
              OFFSET 28.733 1.87905 2.64907
              CHANNELS 3 Zrotation Xrotation Yrotation
              JOINT RightHand
              {
                OFFSET 27.4588 0.290562 -0.101845
                CHANNELS 3 Zrotation Xrotation Yrotation
                End Site
                {
                  OFFSET 17.8396 -0.255518 -0.000602873
                }
              }
            }
          }
        }
      }
    }
  }
  JOINT LeftUpLeg
  {
    OFFSET -5.61296 -2.22332 -10.2353
    CHANNELS 3 Zrotation Xrotation Yrotation
    JOINT LeftLeg
    {
      OFFSET 2.56703 -44.7417 -7.93097
      CHANNELS 3 Zrotation Xrotation Yrotation
      JOINT LeftFoot
      {
        OFFSET 3.16933 -46.5642 -3.96578
        CHANNELS 3 Zrotation Xrotation Yrotation
        JOINT LeftToeBase
        {
          OFFSET 0.346054 -6.02161 12.8035
          CHANNELS 3 Zrotation Xrotation Yrotation
          End Site
          {
            OFFSET 0.134235 -1.35082 5.13018
          }
        }
      }
    }
  }
  JOINT RightUpLeg
  {
    OFFSET -5.7928 -1.72406 10.6446
    CHANNELS 3 Zrotation Xrotation Yrotation
    JOINT RightLeg
    {
      OFFSET -2.57161 -44.7178 -7.85259
      CHANNELS 3 Zrotation Xrotation Yrotation
      JOINT RightFoot
      {
        OFFSET -3.10148 -46.5936 -4.03391
        CHANNELS 3 Zrotation Xrotation Yrotation
        JOINT RightToeBase
        {
          OFFSET -0.0828122 -6.13587 12.8035
          CHANNELS 3 Zrotation Xrotation Yrotation
          End Site
          {
            OFFSET -0.131328 -1.35082 5.13018
          }
        }
      }
    }
  }
}
MOTION
Frames:	15
Frame Time:	0.0333333
-47.2948 104.494 39.4536 75.2346 49.4922 12.1173 -70.1915 0 88.8779 103.026 70.132 -21.6365 -0.926152 18.2787 7.2118 -145.519 19.6665 172.5 -143.92 55.781 165.915 2.29913 -4.35807 -35.1345 -101.543 44.1424 -94.6937 -10.2962 44.287 4.21779 1.97159 0.0214647 2.31768 0.464831 -1.4773 45.7878 -80.7383 -38.3622 84.4761 -3.04961 -7.76456 14.4533 9.33567 -0.507479 -7.02288 -59.0906 -6.14862 91.7885 4.01431 29.0757 -8.53563 9.66021 6.29943 -1.34781 -12.8552 -32.4959 3.58113 -41.1718 0.0396128 77.838 6.6496 70.3989 -6.2764 -6.16022 4.13234 0.844929 -0.389374 -3.39473 -2.1635 
-44.2223 104.487 36.6296 74.3482 51.0712 13.1018 -70.1915 0 88.8779 100.784 69.6443 -20.3047 -0.705887 17.3973 7.76808 -145.378 19.4919 171.542 -142.888 55.3647 164.789 2.23828 -4.40599 -34.1703 -97.9668 44.7504 -99.6024 -8.05392 43.1431 -0.314621 2.72891 -0.00535085 1.16586 0.488834 -1.53619 46.4967 -81.3239 -38.2294 82.2689 -3.06661 -7.82276 14.4023 8.73791 -0.524713 -7.75647 -61.1496 -5.35858 93.7112 4.6192 29.0917 -11.7196 9.21783 4.49026 -1.25698 -13.096 -32.6588 2.86783 -39.7463 -0.698791 76.6312 3.88859 62.172 -3.53473 -6.38384 3.00921 0.897623 -0.787873 -6.78318 -5.78788 
-41.1011 104.278 33.8202 73.3093 52.2929 13.7598 -70.1915 0 88.8779 98.4309 69.4496 -19.2024 -0.63253 16.8042 8.64929 -145.961 19.544 171.443 -143.505 55.5053 164.686 2.21553 -4.46653 -33.9851 -92.0142 43.8853 -106.01 -5.70997 40.1545 -5.4951 3.16022 -0.0499785 -0.230027 0.511927 -1.60732 46.5311 -81.442 -38.7449 80.5378 -3.11347 -6.80421 14.6578 7.89677 -0.474926 -7.83207 -63.2437 -4.85762 95.1874 4.71383 28.8829 -13.7589 9.86425 3.5897 -1.34773 -13.9557 -34.4548 2.5023 -39.3474 -1.54843 75.7482 2.10728 51.3531 -2.17635 -6.59091 2.9018 0.929669 -1.6141 -10.0555 -4.80945 
-37.9215 104.106 31.0194 71.3874 53.7003 15.4988 -70.1915 0 88.8779 94.5743 69.1282 -15.975 0.0199653 16.1499 9.10593 -146.576 19.5481 171.428 -144.573 55.729 165.088 2.19762 -4.49551 -33.7567 -80.325 41.055 -115.951 -2.56048 32.5676 -10.7109 3.88202 -0.0442389 0.260836 0.546874 -1.71035 46.7295 -83.451 -38.9529 78.0686 -3.10609 -6.94231 14.5319 7.55878 -0.460918 -7.96599 -64.9489 -4.26449 95.5823 4.75226 28.5931 -15.1326 10.2351 3.20648 -1.39749 -14.9026 -36.5505 2.37566 -40.0017 -1.95918 74.9063 1.2416 38.2963 -0.219049 -6.05901 3.00415 0.849781 -1.56701 -10.0376 -5.68168 
-34.7136 104.008 28.2297 69.6529 54.5675 16.5793 -70.1915 0 88.8779 89.9636 69.1459 -12.1575 1.02515 15.9407 9.4392 -146.521 19.5278 170.61 -143.643 55.4531 163.815 2.15083 -4.60344 -33.2844 -69.7698 37.1476 -124.208 0.727325 24.8172 -14.8402 4.60886 -0.0422886 0.521369 0.601245 -1.87607 46.8082 -87.2265 -38.809 74.9707 -3.35389 -9.76378 13.2901 9.65559 -0.561278 -7.46536 -67.2842 -4.07926 95.809 4.70489 27.2056 -16.5028 9.65391 3.19581 -1.31148 -15.2945 -37.9296 3.08953 -41.395 -0.991464 80.2423 1.68711 24.6073 -2.80412 -6.37884 2.67945 0.902058 -1.7255 -10.4447 -4.32989 
-31.4837 103.956 25.4671 68.2595 55.5559 17.4368 -70.1915 0 88.8779 86.4323 69.0351 -9.16578 1.88905 15.7106 9.72528 -146.048 19.801 170.829 -144.246 55.9594 164.535 2.1707 -4.51282 -33.2981 -63.1828 33.1438 -129.299 2.85599 19.5451 -17.2439 4.17595 -0.0656052 -0.186749 0.649473 -2.03663 46.5135 -90.3114 -38.8968 72.332 -3.58927 -11.6702 12.3141 10.2911 -0.67372 -8.32182 -69.9382 -3.97974 95.2146 4.71678 25.6516 -17.6268 8.77995 3.52027 -1.18369 -15.6057 -38.8125 3.32637 -42.2717 -0.169695 84.4313 -0.618518 14.9198 -5.32474 -5.99235 1.18916 0.874461 -1.13188 -6.71866 -1.26601 
-28.2639 103.701 22.6794 68.1011 56.8732 17.7458 -70.1915 0 88.8779 87.0313 68.6636 -9.67777 2.27429 15.3756 9.63525 -145.716 19.9889 170.448 -144.191 56.196 164.399 2.14708 -4.64934 -33.4054 -58.566 29.7575 -132.221 4.39383 14.6518 -19.1107 5.11674 -0.100098 -0.58158 0.688401 -2.14288 46.8679 -92.9433 -38.1839 70.317 -3.93639 -13.1266 11.2855 10.2884 -0.64409 -7.9751 -72.3429 -3.73457 92.6958 4.6082 26.3108 -17.8208 7.73598 3.79833 -1.02526 -16.0032 -40.5493 4.42294 -43.0453 -0.983172 84.0987 -0.615469 10.8988 -8.16265 -6.07789 0.909867 0.890869 -1.76786 -10.3599 -2.99122 
-24.8044 103.093 19.7958 68.2081 56.2869 17.6687 -70.1915 0 88.8779 87.1907 68.8323 -8.96966 2.00557 15.5893 9.63059 -145.628 20.1961 171.377 -144.498 56.3747 164.422 2.21545 -4.48218 -34.0506 -58.0648 29.6254 -132.557 5.40809 14.2563 -19.8983 5.29313 -0.064725 0.210902 0.64136 -1.99032 47.0657 -95.2218 -36.7257 69.3215 -4.85158 -15.2841 9.21558 9.08633 -0.506153 -7.20164 -73.725 -3.8563 87.816 3.5406 29.0315 -14.1845 7.74005 4.06126 -1.02457 -16.793 -42.5291 4.60266 -41.7296 -0.758589 83.8429 -0.215258 14.6532 -7.79941 -6.28755 -0.330576 0.938563 -0.746901 -4.81784 -1.42686 
-21.1827 102.466 16.7023 68.1812 55.7051 18.501 -70.1915 0 88.8779 87.5608 68.6743 -7.30141 1.77813 15.5768 9.4619 -145.373 20.2896 172.972 -145.493 56.5828 165.347 2.26667 -4.36557 -34.545 -56.6756 29.8403 -132.209 5.44265 12.8862 -20.2315 6.78958 -0.101081 -0.0551442 0.593991 -1.86007 46.6185 -96.8382 -35.8934 68.7441 -5.5176 -17.3949 7.29626 8.85553 -0.530228 -7.72705 -75.0052 -4.14684 78.1465 0.203362 32.6227 -4.51306 6.81041 3.70716 -0.884999 -17.476 -43.2215 3.54207 -40.4113 0.18904 83.1415 0.647345 20.5429 -7.69686 -5.41963 2.5883 0.765373 -0.816336 -4.43456 0.0265809 
-17.6046 102.289 13.618 68.1846 55.4656 20.187 -70.1915 0 88.8779 87.9901 68.1719 -4.8133 2.43099 15.3779 9.21731 -145.225 20.3156 173.87 -145.388 56.4118 164.792 2.34596 -4.17425 -35.2243 -56.3213 30.6312 -131.077 4.79246 13.578 -19.6097 6.56792 -0.129603 -0.585529 0.583518 -1.81574 46.979 -97.2397 -34.6033 69.3603 -6.36032 -18.5171 5.21385 9.56662 -0.543156 -7.30525 -74.9616 -2.83315 74.4176 -1.43657 37.4367 -0.392905 5.11199 4.94872 -0.592659 -18.571 -42.3741 -0.58576 -40.1206 1.74712 82.2082 1.12701 24.3163 -6.63304 -5.48898 7.0223 0.672354 -0.340825 -2.36641 -0.826195 
-14.0698 102.118 10.699 68.8941 55.132 21.6158 -70.1915 0 88.8779 91.8303 67.8047 -5.33164 2.24886 15.3892 9.12293 -145.574 20.3856 175.048 -146.706 56.6241 165.294 2.39165 -4.08198 -35.6717 -58.9201 33.7221 -128.616 4.01569 18.7193 -18.2136 6.97191 -0.05451 0.719143 0.608907 -1.9031 46.713 -96.9436 -34.1928 70.3588 -6.6651 -19.4974 4.36297 10.9642 -0.498811 -5.87518 -72.2985 -0.176513 76.3227 -1.85138 45.4735 0.953124 2.43428 6.36404 -0.0854617 -18.2404 -36.254 -9.33651 -40.2961 3.39987 80.1503 1.72118 29.1201 -6.65923 -4.6126 5.7577 0.551717 0.462695 3.02888 0.423622 
-10.7402 102.165 7.86658 69.4872 54.0419 22.7183 -70.1915 0 88.8779 97.2897 67.8875 -7.32979 1.01195 15.8936 8.63618 -146.071 20.5897 175.387 -147.554 56.9479 165.311 2.35593 -4.25776 -35.7707 -64.5513 38.4196 -124.117 3.35866 27.5651 -16.6004 4.99207 -0.062336 0.176663 0.574847 -1.81115 46.2932 -96.9939 -34.0408 71.1958 -6.32968 -17.0154 5.64412 10.6176 -0.756424 -9.00256 -67.5885 2.13738 78.5725 -2.40696 53.9324 3.87131 2.73481 11.9745 0.128374 -14.0893 -25.6807 -18.4724 -40.9672 5.44171 78.2131 1.96252 32.422 -5.16505 -5.42889 3.70826 0.740051 0.770887 4.71539 0.349362 
-7.58485 102.242 5.05075 69.6792 53.8008 24.3222 -70.1915 0 88.8779 102.175 67.5571 -8.97187 0.589944 16.0807 7.83736 -148.219 20.7828 175.503 -150.654 57.7298 166.172 2.3423 -4.33773 -35.8678 -71.3708 42.3015 -118.562 2.92423 36.5765 -15.2275 2.91702 -0.0881356 -1.72191 0.574646 -1.82087 45.9802 -95.4294 -34.1685 73.6758 -5.99317 -15.189 7.19662 12.6582 -0.849837 -8.41539 -62.2188 2.44232 77.4528 -3.342 62.499 7.69131 4.5666 14.6684 -0.193716 -17.6286 -35.5311 -8.67865 -42.6459 7.47197 77.014 2.295 33.8695 -5.31049 -6.00088 1.93477 0.861448 0.292878 2.01205 0.369692 
-4.36292 102.59 2.49059 71.144 53.9456 23.6292 -70.1915 0 88.8779 107.63 67.4551 -13.7882 0.0725431 16.4432 8.03524 -147.869 20.8242 174.355 -149.86 57.7792 166.299 2.2664 -4.70243 -36.0685 -77.6993 44.829 -112.917 1.05635 41.5865 -13.051 2.02832 -0.0559126 -1.45557 0.543234 -1.72183 45.964 -92.3422 -34.3877 77.1873 -5.42357 -10.4423 9.85006 12.544 -1.12559 -11.1168 -57.4133 1.7094 77.167 -4.4171 68.5201 11.2063 5.63548 13.9855 -0.471525 -18.665 -36.6697 -9.92505 -45.5763 8.63744 76.5832 2.62447 34.6508 -4.78013 -5.68004 0.441758 0.849487 0.0128224 -0.31894 -0.596666 
-1.04845 103.087 -0.151086 72.0222 53.3457 21.9816 -70.1915 0 88.8779 109.204 68.2077 -16.2498 -0.0794302 17.3497 8.35222 -145.917 20.7142 171.734 -145.749 57.0644 164.122 2.23625 -4.86667 -36.2529 -84.6255 46.1744 -106.981 -3.54478 43.0925 -8.46713 0.90599 -0.0385168 -2.72886 0.552744 -1.75494 45.8693 -85.598 -35.0983 82.5748 -4.49402 -4.86043 13.3796 13.9386 -1.24814 -11.0289 -52.7941 -0.123021 78.0559 -5.641 71.2862 11.8408 5.6214 12.9421 -0.492054 -17.7703 -36.9534 -6.55823 -48.4484 9.46966 77.664 2.31543 34.5851 -4.7113 -5.99944 -1.42936 0.925253 -0.37112 -1.95939 0.0560735 
